<mxfile host="app.diagrams.net" modified="2024-06-22T21:35:10.343Z" agent="Mozilla/5.0 (X11; Linux x86_64) AppleWebKit/537.36 (KHTML, like Gecko) Chrome/126.0.0.0 Safari/537.36" version="24.6.1" etag="ExoxRT0h1LA16obG99Zx" type="github">
  <diagram name="Page-1" id="su0L-lBIVS1BTHvO3N_U">
    <mxGraphModel>
      <root>
        <mxCell id="0" />
        <mxCell id="1" parent="0" />
      </root>
    </mxGraphModel>
  </diagram>
</mxfile>
